# xmcd CD database file
#
# Track frame offsets:
#	150
#	19605
#	36745
#	57930
#	74940
#	94140
#	106690
#	137230
#	157302
#	173020
#	189685
#	212180
#	232315
#	253575
#
# Disc length: 3618 seconds
#
# Revision: 0
# Processed by: cddbd v1.5.1PL0 Copyright (c) Steve Scherf et al.
# Submitted via: CDex 1.51
#
DISCID=db0e200e
DTITLE=Arne Domnérus - Arne Domnérus and NoiseMakers
DYEAR=1995
DGENRE=Jazz
TTITLE0=Flying Home
TTITLE1=Perdido
TTITLE2=Whisper Not
TTITLE3=Stuffy
TTITLE4=The Touch Of Your Lips
TTITLE5=Keepin' Out Of Mischief Now
TTITLE6=Checkered Had And
TTITLE7=Things Ain't What They Used To Be
TTITLE8=The Jazz'n' Samba
TTITLE9=What A Kind Of Fool Am I?
TTITLE10=Royal Garden Blues
TTITLE11=Secret Love
TTITLE12=Song For My Lady
TTITLE13=Do Nothin' Till You Hear From Me
EXTD=YEAR: 1995
EXTT0=
EXTT1=
EXTT2=
EXTT3=
EXTT4=
EXTT5=
EXTT6=
EXTT7=
EXTT8=
EXTT9=
EXTT10=
EXTT11=
EXTT12=
EXTT13=
PLAYORDER=
